<svg version="1.1" xmlns="http://www.w3.org/2000/svg" xmlns:xlink="http://www.w3.org/1999/xlink" width="18.34708" height="28.69201" viewBox="0,0,18.34708,28.69201"><g transform="translate(-319.99423,-151.31595)"><g fill="#000000" stroke="none" stroke-miterlimit="10"><path d="M331.81514,176.20684c-0.85669,0.63352 -2.22872,1.39602 -4.11608,2.28751c-2.09973,1.00907 -3.55996,1.51361 -4.38065,1.51361c-0.48114,0 -0.87709,-0.17638 -1.18785,-0.52913c-0.31076,-0.35156 -0.46614,-0.76191 -0.46614,-1.23105c0,-0.69111 0.39895,-1.21305 1.19685,-1.56581l2.93723,-1.00247c1.81777,-0.73791 3.2546,-1.588 4.31046,-2.55028c1.05586,-0.96108 2.01755,-2.32711 2.88504,-4.09809l0.75591,-1.51361c-0.65632,0.37555 -1.50041,0.72171 -2.53229,1.03847c-1.03187,0.31676 -1.87057,0.47514 -2.51608,0.47514c-2.21612,0 -4.13348,-0.61613 -5.75208,-1.84837c-1.97015,-1.50101 -2.95523,-3.63494 -2.95523,-6.4018c0,-3.27199 1.00847,-5.72929 3.02542,-7.37188c1.72418,-1.39543 3.9877,-2.09313 6.79055,-2.09313c2.15733,0 4.09209,0.87949 5.80427,2.63847c1.80578,1.86457 2.71466,4.11669 2.72665,6.75635c0.012,2.97803 -0.53933,5.86846 -1.65399,8.67131c-1.19625,3.02602 -2.82025,5.30094 -4.87199,6.82474zM329.31705,154.32519c-1.97015,0 -3.45077,0.50994 -4.44184,1.52981c-0.99107,1.01987 -1.49261,2.55628 -1.50461,4.60922c0,1.72418 0.60412,3.06081 1.81237,4.0099c1.06787,0.83269 2.4105,1.24904 4.02789,1.24904c0.93828,0 1.91795,-0.28137 2.93903,-0.8441c0.46914,-0.25797 1.31324,-0.83869 2.53229,-1.74218c0.15238,-1.01987 0.22857,-1.82857 0.22857,-2.42609c-0.012,-1.46621 -0.63052,-2.89704 -1.85556,-4.29246c-1.22505,-1.39543 -2.47109,-2.09314 -3.73813,-2.09314z"/></g></g></svg>