<svg version="1.1" xmlns="http://www.w3.org/2000/svg" xmlns:xlink="http://www.w3.org/1999/xlink" width="20.14585" height="28.72" viewBox="0,0,20.14585,28.72"><g transform="translate(-320.00898,-151.25935)"><g fill="#000000" stroke="none" stroke-miterlimit="10"><path d="M329.91967,179.97935c-3.65137,0 -6.31832,-1.6696 -8.00082,-5.00881c-1.27325,-2.56985 -1.90987,-5.9152 -1.90987,-10.03605c0,-3.483 0.82896,-6.52233 2.48689,-9.11799c1.9578,-3.0381 4.6186,-4.55715 7.98239,-4.55715c3.15977,0 5.62208,1.34514 7.38693,4.03544c1.52642,2.33019 2.28964,5.17104 2.28964,8.52253c0,5.38182 -0.85293,9.42094 -2.55879,12.11737c-1.70586,2.69643 -4.26465,4.04466 -7.67636,4.04466zM330.45981,154.73621c-2.23433,0 -4.00594,1.13498 -5.31483,3.40496c-1.09382,1.89881 -1.64072,4.06739 -1.64072,6.50574c0,3.95125 0.53462,6.91807 1.60385,8.90045c1.06923,1.98239 2.67309,2.97358 4.81155,2.97358c2.5465,0 4.37218,-1.45391 5.47706,-4.36174c0.76936,-2.01802 1.15404,-4.5762 1.15404,-7.67452c0,-3.25563 -0.50758,-5.69459 -1.52274,-7.31688c-1.01516,-1.62106 -2.53789,-2.43159 -4.56821,-2.43159z"/></g></g></svg>