<svg version="1.1" xmlns="http://www.w3.org/2000/svg" xmlns:xlink="http://www.w3.org/1999/xlink" width="17.54715" height="27.45703" viewBox="0,0,17.54715,27.45703"><g transform="translate(-320.03843,-152.5724)"><g fill="#000000" stroke="none" stroke-miterlimit="10"><path d="M327.48872,180.02943c-3.2351,0 -5.61598,-1.19627 -7.14263,-3.5888c-0.20511,-0.3298 -0.30766,-0.64854 -0.30766,-0.9562c0,-0.44401 0.17656,-0.82859 0.52967,-1.15373c0.35311,-0.32398 0.75167,-0.48596 1.19568,-0.48596c0.46732,0 0.91191,0.25056 1.33378,0.75167c0.60367,0.72836 1.05933,1.1951 1.36699,1.40021c0.74002,0.50111 1.74807,0.75167 3.02417,0.75167c1.96949,0 3.60394,-0.75167 4.90335,-2.25502c1.24113,-1.43458 1.8617,-3.15993 1.8617,-5.17605c0,-1.663 -0.27329,-3.01309 -0.81985,-4.05029c-0.70622,-1.30989 -1.79411,-1.96484 -3.26365,-1.96484c-1.21899,0 -2.2154,0.16548 -2.98921,0.49645c-0.61532,0.26105 -1.23647,0.71088 -1.86345,1.34951l-1.8617,2.03301c-0.50111,0.51277 -1.01388,0.76915 -1.53831,0.76915c-0.45566,0 -0.84257,-0.16257 -1.16072,-0.48771c-0.31931,-0.32398 -0.47897,-0.7138 -0.47897,-1.16946c0,-0.22841 0.0909,-1.2423 0.2727,-3.04165c0.38807,-3.58821 0.58211,-5.94636 0.58211,-7.07446c0,-0.39856 -0.09964,-0.83383 -0.29892,-1.30581c-0.19928,-0.47314 -0.29892,-0.82334 -0.29892,-1.05059c0,-0.69573 0.59784,-1.0436 1.79352,-1.0436c0.22725,0 0.57162,0.02039 1.03311,0.06118c0.46149,0.03962 0.80586,0.05943 1.03311,0.05943c0.66077,0 1.65193,-0.02272 2.97347,-0.06817c1.32154,-0.04545 2.3127,-0.06817 2.97347,-0.06817c0.30766,0 0.7744,0.01107 1.40021,0.03321c0.62697,0.02331 1.09429,0.03496 1.40196,0.03496c0.2156,0 0.5285,-0.04312 0.93872,-0.12936c0.41021,-0.08507 0.71787,-0.12761 0.92298,-0.12761c0.44401,0 0.83674,0.16548 1.1782,0.49645c0.34262,0.3298 0.51393,0.71088 0.51393,1.14324c0,1.27609 -1.3501,1.91414 -4.05029,1.91414c-0.35311,0 -0.79712,-0.01107 -1.33203,-0.03321c-0.53491,-0.02331 -0.85947,-0.03496 -0.97368,-0.03496l-2.88782,0.05069l-2.88782,0.08566c0,0.51277 -0.21035,2.40943 -0.63105,5.68998c1.56044,-1.24113 3.6389,-1.8617 6.23538,-1.8617c2.50558,0 4.41913,0.97951 5.74068,2.93851c1.11643,1.663 1.67465,3.78167 1.67465,6.356c0,3.07545 -0.89967,5.60957 -2.69903,7.60237c-1.86811,2.07322 -4.33406,3.10982 -7.39785,3.10982z"/></g></g></svg>