<svg version="1.1" xmlns="http://www.w3.org/2000/svg" xmlns:xlink="http://www.w3.org/1999/xlink" width="16.908" height="28.36771" viewBox="0,0,16.908,28.36771"><g transform="translate(-319.97843,-151.64491)"><g fill="#000000" stroke="none" stroke-miterlimit="10"><path d="M328.26073,180.0126c-1.81671,0 -3.44696,-0.3791 -4.89073,-1.13729c-1.62348,-0.87882 -2.71769,-2.11212 -3.28264,-3.69989c-0.07262,-0.21663 -0.10893,-0.4271 -0.10893,-0.63142c0,-0.48125 0.1834,-0.88128 0.55018,-1.20007c0.36679,-0.31878 0.79082,-0.47818 1.27207,-0.47818c0.48125,0 0.89605,0.22278 1.24438,0.66834l0.83081,1.24438c0.43325,0.58957 1.01667,1.03206 1.75025,1.32746c0.73358,0.29417 1.61178,0.44125 2.63461,0.44125c1.31207,0 2.46106,-0.40864 3.44696,-1.22591c1.04621,-0.86651 1.56932,-1.92564 1.56932,-3.1774c0,-1.81671 -0.66773,-3.26602 -2.00319,-4.34793c-1.17791,-0.93913 -2.74169,-1.51085 -4.69133,-1.71517c-1.33546,-0.1317 -2.00319,-0.67266 -2.00319,-1.62286c0,-0.71019 0.52372,-1.25176 1.57116,-1.6247l4.31285,-1.06529c0.82959,-0.30032 1.45485,-0.70589 1.87579,-1.21668c0.42095,-0.51203 0.63758,-1.13483 0.64988,-1.86841c0.02338,-1.05852 -0.38587,-1.91272 -1.22776,-2.5626c-0.87759,-0.67326 -2.11027,-1.0099 -3.69805,-1.0099c-0.81851,0 -1.61301,0.19817 -2.38351,0.59449l-2.03827,1.2813c-0.39756,0.25232 -0.71635,0.37848 -0.95636,0.37848c-0.48125,0 -0.89359,-0.1834 -1.23699,-0.55018c-0.34218,-0.36679 -0.51326,-0.78466 -0.51326,-1.25361c0,-0.9502 0.92005,-1.86472 2.76015,-2.74353c1.60008,-0.78158 2.9177,-1.17237 3.95283,-1.17237c2.58598,0 4.63717,0.57172 6.15357,1.71517c1.62348,1.22714 2.43521,2.97739 2.43521,5.25075c0,2.82723 -1.14283,4.69195 -3.42849,5.59415c-0.20432,0.0837 -0.43879,0.16801 -0.70342,0.25294c1.60008,0.58834 2.79708,1.469 3.59097,2.64199c0.79389,1.17299 1.19083,2.63768 1.19083,4.39409c0,2.37059 -0.83573,4.38301 -2.50721,6.03725c-1.67271,1.65424 -3.7122,2.48137 -6.11849,2.48137z"/></g></g></svg>