<svg version="1.1" xmlns="http://www.w3.org/2000/svg" xmlns:xlink="http://www.w3.org/1999/xlink" width="960" height="540" viewBox="0,0,960,540"><defs><linearGradient x1="63.03684" y1="165.63927" x2="63.03618" y2="347.51046" gradientUnits="userSpaceOnUse" id="color-1"><stop offset="0" stop-color="#db0000"/><stop offset="1" stop-color="#540303"/></linearGradient><clipPath id="clip-1"><rect x="-320" y="-180" transform="scale(0.5,0.5)" width="1920" height="1080" fill="none" fill-rule="nonzero" stroke="none" stroke-width="0.5" stroke-linecap="butt" stroke-linejoin="miter"/></clipPath></defs><g transform="translate(160,90)"><g clip-path="url(#clip-1)" stroke-miterlimit="10"><path d="M-140.73491,-582.8714h377.3858v48.47244h-377.3858z" fill-opacity="0" fill="#000000" fill-rule="evenodd" stroke="none" stroke-width="1" stroke-linecap="square" stroke-linejoin="miter"/><path d="M62.82431,-326.37323h1879.11263v1057.00085h-1879.11263z" fill-opacity="0" fill="#000000" fill-rule="evenodd" stroke="none" stroke-width="1" stroke-linecap="square" stroke-linejoin="miter"/><path d="M49.7768,-21.89012h1091.09364v151.84561h-1091.09364z" fill-opacity="0" fill="#000000" fill-rule="evenodd" stroke="none" stroke-width="1" stroke-linecap="square" stroke-linejoin="miter"/><path d="M86.38647,37.828c-1.52922,1.28455 -3.00747,2.20208 -4.43476,2.7526c-1.40688,0.53014 -2.91573,0.7952 -4.52651,0.7952c-2.67104,0 -4.7304,-0.65247 -6.17807,-1.95741c-1.42728,-1.30493 -2.14092,-2.97689 -2.14092,-5.01586c0,-1.203 0.26506,-2.29384 0.7952,-3.27255c0.55052,-0.97871 1.26416,-1.7637 2.14092,-2.35501c0.87676,-0.61169 1.86565,-1.07045 2.9667,-1.3763c0.81559,-0.2039 2.03897,-0.4078 3.67014,-0.61169c3.3439,-0.4078 5.80086,-0.88695 7.37086,-1.43748c0.02039,-0.55052 0.03058,-0.90734 0.03058,-1.07045c0,-1.67196 -0.39759,-2.85455 -1.19279,-3.5478c-1.03987,-0.93792 -2.59967,-1.40688 -4.67943,-1.40688c-1.95741,0 -3.39488,0.34662 -4.31242,1.03987c-0.91753,0.67286 -1.60059,1.87584 -2.04916,3.60898l-4.03715,-0.55052c0.36701,-1.73312 0.9685,-3.12981 1.80449,-4.19008c0.83597,-1.06026 2.04916,-1.87584 3.63956,-2.44676c1.5904,-0.5913 3.43566,-0.88695 5.5358,-0.88695c2.07974,0 3.77209,0.24467 5.07702,0.73402c1.30493,0.48935 2.26326,1.11124 2.87494,1.86565c0.61169,0.73402 1.03987,1.67196 1.28455,2.81378c0.12234,0.69325 0.18351,1.95741 0.18351,3.79248v5.50521c0,3.83326 0.09176,6.25963 0.27526,7.27912c0.18351,1.01948 0.53014,1.99819 1.03987,2.93612h-4.31242c-0.42819,-0.85637 -0.70344,-1.85546 -0.82578,-2.99728zM86.05004,28.59148c-1.50883,0.61169 -3.7619,1.13163 -6.75917,1.55981c-1.69235,0.24467 -2.89533,0.51994 -3.60898,0.82578c-0.69325,0.30585 -1.23358,0.75442 -1.62098,1.34572c-0.36701,0.5913 -0.55052,1.24377 -0.55052,1.95741c0,1.10105 0.4078,2.01858 1.22338,2.7526c0.83597,0.73402 2.05936,1.10105 3.67014,1.10105c1.5904,0 3.00747,-0.34662 4.25124,-1.03987c1.24377,-0.69325 2.15111,-1.64136 2.72202,-2.84436c0.44857,-0.93792 0.67286,-2.31422 0.67286,-4.12891v-1.52922zM112.57446,40.82528v-3.57838c-1.89624,2.7526 -4.46534,4.12891 -7.7073,4.12891c-1.44767,0 -2.79338,-0.27526 -4.03715,-0.82578c-1.24377,-0.55052 -2.1715,-1.24377 -2.78319,-2.07974c-0.5913,-0.83597 -1.00929,-1.85546 -1.25397,-3.05845c-0.18351,-0.81559 -0.27526,-2.10013 -0.27526,-3.85365v-15.10876h4.12891v13.51836c0,2.16131 0.09176,3.61917 0.27526,4.37358c0.24467,1.08065 0.785,1.93702 1.62098,2.56911c0.85637,0.61169 1.90644,0.91753 3.15021,0.91753c1.22338,0 2.3754,-0.31604 3.45605,-0.94812c1.10105,-0.65247 1.87584,-1.51903 2.32442,-2.59969c0.44857,-1.10105 0.67286,-2.69144 0.67286,-4.77119v-13.05959h4.12891v24.37586zM122.00214,42.84386l4.00657,0.61169c0.16311,1.22338 0.63209,2.12053 1.40688,2.69144c1.01948,0.77481 2.41617,1.16221 4.19008,1.16221c1.91663,0 3.39488,-0.3874 4.43476,-1.16221c1.03987,-0.75442 1.74331,-1.82488 2.11034,-3.21137c0.2039,-0.83597 0.29566,-2.59969 0.27526,-5.29112c-1.79429,2.12053 -4.03715,3.18079 -6.72859,3.18079c-3.3439,0 -5.9334,-1.203 -7.76847,-3.60898c-1.83507,-2.42637 -2.7526,-5.3319 -2.7526,-8.71658c0,-2.32442 0.41799,-4.46534 1.25397,-6.42274c0.83597,-1.97779 2.04916,-3.49683 3.63956,-4.55709c1.61078,-1.08065 3.49683,-1.62098 5.65814,-1.62098c2.87494,0 5.24015,1.16221 7.0956,3.48664v-2.93612h3.82307v21.07273c0,3.79248 -0.3874,6.47373 -1.16221,8.04373c-0.77481,1.5904 -1.99819,2.84436 -3.67014,3.7619c-1.67196,0.91753 -3.73131,1.3763 -6.17807,1.3763c-2.91573,0 -5.27073,-0.65247 -7.06502,-1.95741c-1.77391,-1.30493 -2.63027,-3.27255 -2.56911,-5.90281zM125.39701,28.19387c0,3.20118 0.63209,5.5358 1.89624,7.00385c1.28455,1.46806 2.88514,2.20208 4.80177,2.20208c1.89624,0 3.48664,-0.72383 4.77119,-2.1715c1.28455,-1.46806 1.92683,-3.7619 1.92683,-6.88151c0,-2.97689 -0.66267,-5.21976 -1.98799,-6.72859c-1.32533,-1.52922 -2.92592,-2.29384 -4.80177,-2.29384c-1.83507,0 -3.39488,0.74423 -4.67943,2.23267c-1.28455,1.48845 -1.92683,3.70072 -1.92683,6.63684zM148.12896,42.84386l4.00657,0.61169c0.16311,1.22338 0.63209,2.12053 1.40688,2.69144c1.01948,0.77481 2.41617,1.16221 4.19008,1.16221c1.91663,0 3.39488,-0.3874 4.43476,-1.16221c1.03987,-0.75442 1.74331,-1.82488 2.11034,-3.21137c0.2039,-0.83597 0.29566,-2.59969 0.27526,-5.29112c-1.79429,2.12053 -4.03715,3.18079 -6.72859,3.18079c-3.3439,0 -5.9334,-1.203 -7.76847,-3.60898c-1.83507,-2.42637 -2.7526,-5.3319 -2.7526,-8.71658c0,-2.32442 0.41799,-4.46534 1.25397,-6.42274c0.83597,-1.97779 2.04916,-3.49683 3.63956,-4.55709c1.61078,-1.08065 3.49683,-1.62098 5.65814,-1.62098c2.87494,0 5.24015,1.16221 7.0956,3.48664v-2.93612h3.82307v21.07273c0,3.79248 -0.3874,6.47373 -1.16221,8.04373c-0.77481,1.5904 -1.99819,2.84436 -3.67014,3.7619c-1.67196,0.91753 -3.73131,1.3763 -6.17807,1.3763c-2.91573,0 -5.27073,-0.65247 -7.06502,-1.95741c-1.77391,-1.30493 -2.63027,-3.27255 -2.56911,-5.90281zM151.52384,28.19387c0,3.20118 0.63209,5.5358 1.89624,7.00385c1.28455,1.46806 2.88514,2.20208 4.80177,2.20208c1.89624,0 3.48664,-0.72383 4.77119,-2.1715c1.28455,-1.46806 1.92683,-3.7619 1.92683,-6.88151c0,-2.97689 -0.66267,-5.21976 -1.98799,-6.72859c-1.32533,-1.52922 -2.92592,-2.29384 -4.80177,-2.29384c-1.83507,0 -3.39488,0.74423 -4.67943,2.23267c-1.28455,1.48845 -1.92683,3.70072 -1.92683,6.63684zM175.02039,11.9535v-4.77119h4.12891v4.77119zM175.02039,40.82528v-24.37586h4.12891v24.37586zM202.12592,32.96506l4.25124,0.55052c-0.67286,2.48754 -1.91663,4.42456 -3.73131,5.81106c-1.81468,1.36611 -4.1391,2.04916 -6.97327,2.04916c-3.56819,0 -6.40236,-1.09085 -8.5025,-3.27255c-2.07974,-2.20208 -3.11962,-5.29112 -3.11962,-9.2671c0,-4.09833 1.05007,-7.27912 3.15021,-9.54237c2.12053,-2.26326 4.86294,-3.39488 8.22723,-3.39488c3.26235,0 5.9232,1.11124 7.98256,3.33371c2.07974,2.22247 3.11962,5.3421 3.11962,9.35886c0,0.24467 -0.01019,0.61169 -0.03058,1.10105h-18.1672c0.14272,2.67104 0.89715,4.72021 2.26326,6.14749c1.36611,1.42728 3.06865,2.14092 5.10762,2.14092c1.50883,0 2.79338,-0.39759 3.85365,-1.19279c1.08065,-0.7952 1.93702,-2.06955 2.56911,-3.82307zM188.54639,26.29763h13.6101c-0.18351,-2.03897 -0.70344,-3.57838 -1.55981,-4.61827c-1.30493,-1.5904 -3.00747,-2.38559 -5.10762,-2.38559c-1.89624,0 -3.49683,0.64228 -4.80177,1.92683c-1.28455,1.26416 -1.99819,2.9565 -2.14092,5.07704zM229.10145,40.82528l-7.43203,-24.37586h4.25124l3.88423,14.06887l1.43748,5.22995c0.06117,-0.26506 0.47915,-1.93702 1.25397,-5.01586l3.88423,-14.28297h4.25124l3.63956,14.13005l1.22338,4.67943l1.40688,-4.71001l4.15949,-14.09947h4.00657l-7.61555,24.37586h-4.28184l-3.88423,-14.58881l-0.91753,-4.15949l-4.95469,18.7483zM257.00218,28.65264c0,-4.52651 1.25397,-7.87042 3.7619,-10.03172c2.10013,-1.81468 4.65904,-2.72202 7.67671,-2.72202c3.3439,0 6.07612,1.10105 8.19665,3.30313c2.12053,2.20208 3.18079,5.22995 3.18079,9.08361c0,3.14002 -0.46896,5.60716 -1.40688,7.40145c-0.93792,1.79429 -2.30403,3.19098 -4.09833,4.19008c-1.79429,0.9991 -3.7517,1.49864 -5.87223,1.49864c-3.42547,0 -6.18826,-1.09085 -8.28841,-3.27255c-2.10013,-2.20208 -3.15021,-5.35229 -3.15021,-9.45062zM261.25343,28.65264c0,3.11962 0.67286,5.45424 2.01858,7.00385c1.36611,1.54962 3.08903,2.32442 5.16878,2.32442c2.03897,0 3.74151,-0.77481 5.10762,-2.32442c1.36611,-1.57001 2.04916,-3.9556 2.04916,-7.15678c0,-3.01767 -0.69325,-5.30131 -2.07974,-6.85093c-1.36611,-1.54962 -3.05845,-2.32442 -5.07704,-2.32442c-2.07974,0 -3.80267,0.77481 -5.16878,2.32442c-1.34572,1.54962 -2.01858,3.88423 -2.01858,7.00385zM284.65823,40.82528v-24.37586h3.73131v3.48664c1.79429,-2.69144 4.37358,-4.03715 7.73788,-4.03715c1.46806,0 2.81378,0.26506 4.03715,0.7952c1.24377,0.53014 2.1715,1.22338 2.78319,2.07974c0.61169,0.85637 1.03987,1.87584 1.28455,3.05845c0.16311,0.75442 0.24467,2.08994 0.24467,4.00657v14.98641h-4.12891v-14.83349c0,-1.67196 -0.16311,-2.92592 -0.48935,-3.7619c-0.32624,-0.83597 -0.89715,-1.49864 -1.71273,-1.98799c-0.81559,-0.50974 -1.77391,-0.76462 -2.87494,-0.76462c-1.75351,0 -3.27255,0.56072 -4.55709,1.68215c-1.28455,1.12143 -1.92683,3.24195 -1.92683,6.36158v13.30427zM324.99921,21.15943v-4.71001h4.71001v4.71001zM324.99921,40.82528v-4.71001h4.71001v4.71001zM344.77974,50.70408c-2.26326,-2.87494 -4.19008,-6.23924 -5.78048,-10.0929c-1.57001,-3.85365 -2.35501,-7.83983 -2.35501,-11.95855c0,-3.64975 0.5913,-7.13639 1.77391,-10.45991c1.36611,-3.87404 3.48664,-7.72769 6.36158,-11.56094h2.9667c-1.85546,3.18079 -3.07884,5.44405 -3.67014,6.78977c-0.93792,2.12053 -1.67196,4.32261 -2.20208,6.60626c-0.65247,2.87494 -0.97871,5.74988 -0.97871,8.62484c0,7.36068 2.28364,14.71115 6.85093,22.05143z" fill="#980000" fill-rule="nonzero" stroke="none" stroke-width="1" stroke-linecap="square" stroke-linejoin="miter"/><path d="M79.50496,93.49794l0.61169,3.63956c-1.16221,0.26506 -2.20208,0.39759 -3.11962,0.39759c-1.50883,0 -2.68125,-0.23448 -3.51722,-0.70344c-0.81559,-0.48935 -1.39669,-1.12143 -1.74331,-1.89624c-0.32624,-0.77481 -0.48935,-2.39579 -0.48935,-4.86294v-14.03829h-3.02787v-3.21137h3.02787v-6.02515l4.09833,-2.47735v8.5025h4.15949v3.21137h-4.15949v14.25238c0,1.1826 0.07137,1.94721 0.21409,2.29384c0.16311,0.32624 0.4078,0.5913 0.73402,0.7952c0.32624,0.18351 0.7952,0.27526 1.40688,0.27526c0.44857,0 1.05007,-0.05097 1.80449,-0.15292zM83.50388,97.19867v-24.37586h3.70072v3.70072c0.95831,-1.73312 1.83507,-2.87494 2.63027,-3.42547c0.81559,-0.55052 1.70254,-0.82578 2.66085,-0.82578c1.3865,0 2.80359,0.44857 4.25124,1.34572l-1.43748,3.82307c-0.9991,-0.5913 -2.00839,-0.88695 -3.02787,-0.88695c-0.89715,0 -1.71273,0.27526 -2.44676,0.82578c-0.71364,0.53014 -1.22338,1.27435 -1.52922,2.23267c-0.44857,1.46806 -0.67286,3.07884 -0.67286,4.83235v12.75374h-4.12891zM98.99494,106.58811l-0.45877,-3.88423c0.91753,0.24467 1.71273,0.36701 2.38559,0.36701c0.91753,0 1.65156,-0.15292 2.20208,-0.45877c0.55052,-0.30585 0.9991,-0.73402 1.34572,-1.28455c0.26506,-0.4078 0.68305,-1.42728 1.25397,-3.05845c0.08156,-0.24467 0.2039,-0.5811 0.36701,-1.00929l-9.23652,-24.43702h4.43476l5.07704,14.13005c0.65247,1.77391 1.24377,3.64975 1.77391,5.62755c0.46896,-1.89624 1.02968,-3.74151 1.68215,-5.5358l5.22995,-14.2218h4.12891l-9.2671,24.80405c-0.9991,2.67104 -1.77391,4.50612 -2.32442,5.50521c-0.73402,1.36611 -1.5802,2.36521 -2.53851,2.99728c-0.93792,0.63209 -2.06955,0.94812 -3.39488,0.94812c-0.7952,0 -1.68215,-0.16311 -2.66085,-0.48935zM151.62324,94.20138c-1.52922,1.28455 -3.00747,2.20208 -4.43476,2.7526c-1.40688,0.53014 -2.91573,0.7952 -4.52651,0.7952c-2.67104,0 -4.7304,-0.65247 -6.17807,-1.95741c-1.42728,-1.30493 -2.14092,-2.97689 -2.14092,-5.01586c0,-1.203 0.26506,-2.29384 0.7952,-3.27255c0.55052,-0.97871 1.26416,-1.7637 2.14092,-2.35501c0.87676,-0.61169 1.86565,-1.07045 2.9667,-1.3763c0.81559,-0.2039 2.03897,-0.4078 3.67014,-0.61169c3.3439,-0.4078 5.80086,-0.88695 7.37087,-1.43748c0.02039,-0.55052 0.03058,-0.90734 0.03058,-1.07045c0,-1.67196 -0.39759,-2.85455 -1.19279,-3.5478c-1.03987,-0.93792 -2.59969,-1.40688 -4.67943,-1.40688c-1.95741,0 -3.39488,0.34662 -4.31242,1.03987c-0.91753,0.67286 -1.60059,1.87584 -2.04916,3.60898l-4.03715,-0.55052c0.36701,-1.73312 0.9685,-3.12981 1.80449,-4.19008c0.83597,-1.06026 2.04916,-1.87584 3.63956,-2.44676c1.5904,-0.5913 3.43566,-0.88695 5.5358,-0.88695c2.07974,0 3.77209,0.24467 5.07704,0.73402c1.30493,0.48935 2.26326,1.11124 2.87494,1.86565c0.61169,0.73402 1.03987,1.67196 1.28455,2.81378c0.12234,0.69325 0.18351,1.95741 0.18351,3.79248v5.50521c0,3.83326 0.09176,6.25963 0.27526,7.27912c0.18351,1.01948 0.53014,1.99819 1.03987,2.93612h-4.31242c-0.42819,-0.85637 -0.70344,-1.85546 -0.82578,-2.99728zM151.28681,84.96485c-1.50883,0.61169 -3.7619,1.13163 -6.75917,1.55981c-1.69235,0.24467 -2.89533,0.51994 -3.60898,0.82578c-0.69325,0.30585 -1.23358,0.75442 -1.62098,1.34572c-0.36701,0.5913 -0.55052,1.24377 -0.55052,1.95741c0,1.10105 0.4078,2.01858 1.22338,2.7526c0.83597,0.73402 2.05936,1.10105 3.67014,1.10105c1.5904,0 3.00747,-0.34662 4.25124,-1.03987c1.24377,-0.69325 2.15111,-1.64136 2.72202,-2.84436c0.44857,-0.93792 0.67286,-2.31422 0.67286,-4.12891zM161.11208,99.21724l4.00657,0.61169c0.16311,1.22338 0.63209,2.12053 1.40688,2.69144c1.01948,0.77481 2.41617,1.16221 4.19008,1.16221c1.91663,0 3.39488,-0.3874 4.43476,-1.16221c1.03987,-0.75442 1.74331,-1.82488 2.11034,-3.21137c0.2039,-0.83597 0.29566,-2.59969 0.27526,-5.29112c-1.79429,2.12053 -4.03715,3.18079 -6.72859,3.18079c-3.3439,0 -5.9334,-1.203 -7.76847,-3.60898c-1.83507,-2.42637 -2.7526,-5.3319 -2.7526,-8.71658c0,-2.32442 0.41799,-4.46534 1.25397,-6.42274c0.83597,-1.97779 2.04916,-3.49683 3.63956,-4.55709c1.61078,-1.08065 3.49683,-1.62098 5.65814,-1.62098c2.87494,0 5.24015,1.16221 7.0956,3.48664v-2.93612h3.82307v21.07273c0,3.79248 -0.3874,6.47373 -1.16221,8.04373c-0.77481,1.5904 -1.99819,2.84436 -3.67014,3.7619c-1.67196,0.91753 -3.73131,1.3763 -6.17807,1.3763c-2.91573,0 -5.27073,-0.65247 -7.06502,-1.95741c-1.77391,-1.30493 -2.63027,-3.27255 -2.56911,-5.90281zM164.50696,84.56726c0,3.20118 0.63209,5.5358 1.89624,7.00385c1.28455,1.46806 2.88514,2.20208 4.80177,2.20208c1.89624,0 3.48664,-0.72383 4.77119,-2.1715c1.28455,-1.46806 1.92683,-3.7619 1.92683,-6.88151c0,-2.97689 -0.66267,-5.21976 -1.98799,-6.72859c-1.32533,-1.52922 -2.92592,-2.29384 -4.80177,-2.29384c-1.83507,0 -3.39488,0.74423 -4.67943,2.23267c-1.28455,1.48845 -1.92683,3.70072 -1.92683,6.63684zM203.87689,94.20138c-1.52922,1.28455 -3.00747,2.20208 -4.43476,2.7526c-1.40688,0.53014 -2.91573,0.7952 -4.52651,0.7952c-2.67104,0 -4.7304,-0.65247 -6.17807,-1.95741c-1.42728,-1.30493 -2.14092,-2.97689 -2.14092,-5.01586c0,-1.203 0.26506,-2.29384 0.7952,-3.27255c0.55052,-0.97871 1.26416,-1.7637 2.14092,-2.35501c0.87676,-0.61169 1.86565,-1.07045 2.9667,-1.3763c0.81559,-0.2039 2.03897,-0.4078 3.67014,-0.61169c3.3439,-0.4078 5.80086,-0.88695 7.37087,-1.43748c0.02039,-0.55052 0.03058,-0.90734 0.03058,-1.07045c0,-1.67196 -0.39759,-2.85455 -1.19279,-3.5478c-1.03987,-0.93792 -2.59969,-1.40688 -4.67943,-1.40688c-1.95741,0 -3.39488,0.34662 -4.31242,1.03987c-0.91753,0.67286 -1.60059,1.87584 -2.04916,3.60898l-4.03715,-0.55052c0.36701,-1.73312 0.9685,-3.12981 1.80449,-4.19008c0.83597,-1.06026 2.04916,-1.87584 3.63956,-2.44676c1.5904,-0.5913 3.43566,-0.88695 5.5358,-0.88695c2.07974,0 3.77209,0.24467 5.07704,0.73402c1.30493,0.48935 2.26326,1.11124 2.87494,1.86565c0.61169,0.73402 1.03987,1.67196 1.28455,2.81378c0.12234,0.69325 0.18351,1.95741 0.18351,3.79248v5.50521c0,3.83326 0.09176,6.25963 0.27526,7.27912c0.18351,1.01948 0.53014,1.99819 1.03987,2.93612h-4.31242c-0.42819,-0.85637 -0.70344,-1.85546 -0.82578,-2.99728zM203.54046,84.96485c-1.50883,0.61169 -3.7619,1.13163 -6.75917,1.55981c-1.69235,0.24467 -2.89533,0.51994 -3.60898,0.82578c-0.69325,0.30585 -1.23358,0.75442 -1.62098,1.34572c-0.36701,0.5913 -0.55052,1.24377 -0.55052,1.95741c0,1.10105 0.4078,2.01858 1.22338,2.7526c0.83597,0.73402 2.05936,1.10105 3.67014,1.10105c1.5904,0 3.00747,-0.34662 4.25124,-1.03987c1.24377,-0.69325 2.15111,-1.64136 2.72202,-2.84436c0.44857,-0.93792 0.67286,-2.31422 0.67286,-4.12891zM214.13034,68.32688v-4.77119h4.12891v4.77119zM214.13034,97.19867v-24.37586h4.12891v24.37586zM224.53672,97.19867v-24.37586h3.73131v3.48664c1.79429,-2.69144 4.37358,-4.03715 7.73788,-4.03715c1.46806,0 2.81378,0.26506 4.03715,0.7952c1.24377,0.53014 2.1715,1.22338 2.78319,2.07974c0.61169,0.85637 1.03987,1.87584 1.28455,3.05845c0.16311,0.75442 0.24467,2.08994 0.24467,4.00657v14.98641h-4.12891v-14.83349c0,-1.67196 -0.16311,-2.92592 -0.48935,-3.7619c-0.32624,-0.83597 -0.89715,-1.49864 -1.71273,-1.98799c-0.81559,-0.50974 -1.77391,-0.76462 -2.87494,-0.76462c-1.75351,0 -3.27255,0.56072 -4.55709,1.68215c-1.28455,1.12143 -1.92683,3.24195 -1.92683,6.36158v13.30427zM258.40143,88.91026c-0.02039,-0.55052 -0.03058,-0.95831 -0.03058,-1.22338c0,-1.63117 0.23448,-3.03807 0.70344,-4.22066c0.32624,-0.87676 0.86657,-1.7637 1.62098,-2.66085c0.55052,-0.67286 1.53943,-1.63117 2.9667,-2.87494c1.42728,-1.26416 2.35501,-2.27345 2.78319,-3.02787c0.42819,-0.75442 0.64228,-1.57001 0.64228,-2.44676c0,-1.61078 -0.63209,-3.01767 -1.89624,-4.22066c-1.24377,-1.22338 -2.77299,-1.83507 -4.58767,-1.83507c-1.75351,0 -3.22157,0.55052 -4.40417,1.65156c-1.1826,1.10105 -1.95741,2.81378 -2.32442,5.1382l-4.22066,-0.48935c0.36701,-3.14002 1.49864,-5.5358 3.39488,-7.18736c1.89624,-1.67196 4.39398,-2.50793 7.49321,-2.50793c3.28274,0 5.90281,0.89715 7.86022,2.69144c1.95741,1.77391 2.93612,3.93521 2.93612,6.48392c0,1.46806 -0.34662,2.82397 -1.03987,4.06774c-0.67286,1.22338 -2.01858,2.72202 -4.03715,4.49592c-1.34572,1.203 -2.22247,2.08994 -2.63027,2.66085c-0.4078,0.55052 -0.71364,1.19279 -0.91753,1.92683c-0.2039,0.73402 -0.31604,1.92683 -0.33643,3.57838zM258.15675,97.19867v-4.71001h4.71001v4.71001z" fill="#980000" fill-rule="nonzero" stroke="none" stroke-width="1" stroke-linecap="square" stroke-linejoin="miter"/><path d="M63.03684,165.64093h464.1063v181.86951h-464.1063z" fill="url(#color-1)" fill-rule="evenodd" stroke="none" stroke-width="1" stroke-linecap="square" stroke-linejoin="miter"/><path d="M63.03684,165.64093h464.1063v181.86951h-464.1063z" fill="none" fill-rule="evenodd" stroke="#595959" stroke-width="1" stroke-linecap="butt" stroke-linejoin="round"/><path d="M277.02912,260.6398c0,-3.50703 0.9685,-6.09651 2.90552,-7.76847c1.63117,-1.40688 3.61917,-2.11034 5.96398,-2.11034c2.60988,0 4.74061,0.85637 6.39216,2.56911c1.65156,1.69235 2.47735,4.04734 2.47735,7.06502c0,2.42637 -0.36701,4.343 -1.10105,5.74988c-0.73402,1.3865 -1.80449,2.46716 -3.21137,3.24195c-1.3865,0.77481 -2.90552,1.16221 -4.55709,1.16221c-2.65065,0 -4.79157,-0.84617 -6.42274,-2.53851c-1.63117,-1.71273 -2.44676,-4.16969 -2.44676,-7.37087zM280.33225,260.6398c0,2.42637 0.51994,4.25124 1.55981,5.47463c1.06026,1.203 2.39579,1.80449 4.00657,1.80449c1.5904,0 2.91573,-0.60149 3.97599,-1.80449c1.06026,-1.22338 1.5904,-3.07884 1.5904,-5.56638c0,-2.34482 -0.53014,-4.11871 -1.5904,-5.32171c-1.06026,-1.203 -2.38559,-1.80449 -3.97599,-1.80449c-1.61078,0 -2.94631,0.60149 -4.00657,1.80449c-1.03987,1.1826 -1.55981,2.98709 -1.55981,5.41345zM298.53143,270.121v-26.14976h3.21137v14.92524l7.61555,-7.7073h4.12891l-7.21794,7.03444l7.95198,11.89737h-3.94541l-6.26983,-9.69529l-2.26326,2.20208v7.49321z" fill="#000000" fill-rule="nonzero" stroke="none" stroke-width="1" stroke-linecap="square" stroke-linejoin="miter"/></g></g></svg>