<svg version="1.1" xmlns="http://www.w3.org/2000/svg" xmlns:xlink="http://www.w3.org/1999/xlink" width="17.16797" height="28.16766" viewBox="0,0,17.16797,28.16766"><g transform="translate(-320.06465,-151.83219)"><g fill="#000000" stroke="none" stroke-miterlimit="10"><path d="M335.51173,179.98301c-0.30461,0 -0.73469,-0.09488 -1.29022,-0.28464c-0.55553,-0.18851 -0.97937,-0.28276 -1.2715,-0.28276c-0.62295,0 -1.55676,0.03621 -2.80141,0.10861c-1.24341,0.07366 -2.18282,0.11048 -2.81826,0.11048c-0.47564,0 -1.18037,0.06117 -2.11417,0.18351c-0.93255,0.12109 -1.63728,0.18164 -2.11417,0.18164c-0.13358,0 -0.32833,-0.02434 -0.58425,-0.07303c-0.25717,-0.04869 -0.45254,-0.07303 -0.58612,-0.07303c-0.84142,0 -1.39071,-0.40885 -1.64789,-1.22655c-0.14606,-0.42695 -0.21909,-1.15851 -0.21909,-2.19469c0,-2.84385 0.77463,-5.13217 2.3239,-6.86495c0.70784,-0.79274 2.6179,-2.25648 5.73016,-4.39125c1.74402,-1.19596 2.90878,-2.12977 3.49427,-2.80141c1.0499,-1.171 1.57486,-2.54362 1.57486,-4.11785c0,-0.7815 -0.50623,-1.47685 -1.51868,-2.08608c-0.89136,-0.5493 -1.76399,-0.82394 -2.6179,-0.82394c-1.12231,0 -2.1897,0.32333 -3.20215,0.97001l-2.6179,2.0505c-0.52433,0.41447 -0.94566,0.6217 -1.26401,0.6217c-1.25589,0 -1.88384,-0.50061 -1.88384,-1.50183c0,-0.57302 0.23158,-1.06675 0.69473,-1.48123c1.42817,-1.34203 2.66658,-2.31203 3.71524,-2.91002c1.47685,-0.84267 2.99616,-1.26401 4.55791,-1.26401c1.97622,0 3.73958,0.53681 5.2901,1.61044c1.73278,1.20845 2.59917,2.75834 2.59917,4.64967c0,1.24465 -0.17727,2.39194 -0.53182,3.44184c-0.35329,1.04866 -0.89011,2.00618 -1.61044,2.87257c-0.91507,1.09859 -2.46497,2.32514 -4.64967,3.67966c-2.29331,1.4394 -3.80013,2.53113 -4.52046,3.27518c-1.35452,1.4032 -2.01929,3.1054 -1.99432,5.10658l3.76954,-0.3483c2.58669,-0.14606 4.43556,-0.21909 5.54664,-0.21909c0.92756,0 1.80581,0.15854 2.63475,0.47564c1.09859,0.42695 1.64789,1.01869 1.64789,1.77523c0,0.47564 -0.16479,0.90009 -0.49437,1.27337c-0.32958,0.37202 -0.73843,0.55803 -1.22655,0.55803z"/></g></g></svg>