<svg version="1.1" xmlns="http://www.w3.org/2000/svg" xmlns:xlink="http://www.w3.org/1999/xlink" width="18.34854" height="28.87144" viewBox="0,0,18.34854,28.87144"><g transform="translate(-320.00113,-151.10042)"><g fill="#000000" stroke="none" stroke-miterlimit="10"><path d="M328.99281,179.97184c-2.56994,0 -4.64696,-0.56022 -6.23105,-1.68068c-1.8022,-1.26752 -2.722,-3.12518 -2.75939,-5.57299c-0.04861,-3.93468 1.3342,-6.61493 4.14843,-8.04073c-2.16862,-1.31489 -3.25294,-3.18439 -3.25294,-5.60851c0,-2.30323 0.83442,-4.21636 2.50326,-5.73938c1.59656,-1.46071 3.53399,-2.20352 5.81229,-2.22845c5.1162,-0.04861 7.67431,2.47896 7.67431,7.58271c0,1.46195 -0.29289,2.58864 -0.87867,3.38006c-0.47485,0.65807 -1.39402,1.3342 -2.75752,2.02841c1.81466,0.91356 3.08718,1.90066 3.81753,2.96129c0.85374,1.24259 1.28061,2.95382 1.28061,5.13366c0,2.4852 -0.9198,4.43446 -2.75939,5.84781c-1.70623,1.2912 -3.90539,1.93681 -6.59748,1.93681zM329.15732,154.37273c-1.57163,0 -2.77123,0.44432 -3.59879,1.33296c-0.74282,0.82882 -1.10862,1.94989 -1.0974,3.36324c0.01246,1.70499 1.41334,2.91705 4.20264,3.63618c1.46195,-0.42749 2.5095,-0.85436 3.14264,-1.28061c1.01203,-0.68174 1.51804,-1.59531 1.51804,-2.74069c0,-1.65638 -0.37203,-2.81984 -1.11609,-3.49036c-0.63314,-0.54714 -1.65015,-0.82071 -3.05103,-0.82071zM328.82829,165.93935c-1.93681,0.9011 -3.22801,1.68068 -3.87361,2.33875c-1.01078,1.01078 -1.48563,2.43596 -1.42456,4.27555c0.04861,1.52178 0.74904,2.6603 2.10132,3.41558c0.9871,0.53592 2.10756,0.80389 3.36137,0.80389c2.14369,0 3.64242,-0.50539 4.49616,-1.51617c0.68174,-0.80389 1.02262,-2.02218 1.02262,-3.65488c0,-1.59531 -0.6213,-2.88028 -1.86389,-3.85492c-0.82882,-0.66928 -2.10195,-1.27189 -3.8194,-1.80781z"/></g></g></svg>