<svg version="1.1" xmlns="http://www.w3.org/2000/svg" xmlns:xlink="http://www.w3.org/1999/xlink" width="17.629" height="28.75873" viewBox="0,0,17.629,28.75873"><g transform="translate(-319.998,-151.23857)"><g fill="#000000" stroke="none" stroke-miterlimit="10"><path d="M328.58297,179.99729c-3.07372,0 -5.33472,-1.12478 -6.78303,-3.37434c-1.20129,-1.84832 -1.80194,-4.31537 -1.80194,-7.40114c0,-5.8185 2.36102,-10.86525 7.08305,-15.14026l1.66096,-1.67723c0.81211,-0.77717 1.4242,-1.16575 1.83628,-1.16575c0.47112,0 0.8838,0.16748 1.23804,0.50245c0.35304,0.33617 0.53558,0.73379 0.54763,1.19286c0.02289,0.42412 -0.57775,1.24286 -1.80194,2.4562l-3.60388,3.51532c-0.95429,0.96513 -1.77302,2.42548 -2.4562,4.38104c1.02417,-0.47112 1.91942,-0.82174 2.68574,-1.05188c0.76512,-0.22893 1.39528,-0.3434 1.8905,-0.3434c2.75562,0 4.86903,0.7356 6.34022,2.20679c1.47239,1.47239 2.2086,3.55146 2.2086,6.2372c0,2.81346 -0.79463,5.10941 -2.38391,6.88785c-1.66036,1.84954 -3.8804,2.7743 -6.66013,2.7743zM328.58297,165.49321c-1.01332,0 -1.92002,0.17712 -2.72008,0.53136c-0.30605,0.14097 -1.07779,0.59402 -2.31523,1.35914c-0.06988,0.62415 -0.10483,1.23684 -0.10483,1.83809c0,2.10738 0.35304,3.82679 1.05911,5.15821c0.89525,1.6953 2.29113,2.54296 4.18766,2.54296c1.77724,0 3.15505,-0.63559 4.13343,-1.90677c0.90609,-1.1784 1.35914,-2.73876 1.35914,-4.68107c0,-1.61458 -0.4651,-2.82491 -1.39528,-3.63099c-0.93019,-0.80728 -2.3315,-1.21093 -4.20392,-1.21093z"/></g></g></svg>