<svg version="1.1" xmlns="http://www.w3.org/2000/svg" xmlns:xlink="http://www.w3.org/1999/xlink" width="11.78401" height="28.59176" viewBox="0,0,11.78401,28.59176"><g transform="translate(-320.00664,-151.41275)"><g fill="#000000" stroke="none" stroke-miterlimit="10"><path d="M330.01292,180.00451h-3.64734l-3.62859,-0.01875c-0.85511,0 -1.45394,-0.05501 -1.79648,-0.16502c-0.62258,-0.22003 -0.93387,-0.68446 -0.93387,-1.3933c0,-1.23391 0.95888,-1.85086 2.87662,-1.85086l0.87949,0.01875l0.75197,0.0375c0,-0.58758 -0.05188,-1.45519 -0.15564,-2.60283c-0.10377,-1.14889 -0.15564,-2.01088 -0.15564,-2.58595c0,-1.55145 0.14064,-3.90924 0.42193,-7.0734c0.26879,-3.11665 0.39692,-5.48132 0.38442,-7.09403c-1.63771,1.27141 -2.68222,1.90712 -3.13352,1.90712c-0.48881,0 -0.91387,-0.18377 -1.27516,-0.55132c-0.36005,-0.3663 -0.54007,-0.7876 -0.54007,-1.26391c0,-0.57382 0.5257,-1.27016 1.57708,-2.08902c0.65884,-0.46506 1.59332,-1.21078 2.80348,-2.23716c1.07514,-1.08639 2.10151,-1.62958 3.07914,-1.62958c0.81885,0 1.22828,0.47006 1.22828,1.41018c0,0.28129 -0.03688,0.70009 -0.11064,1.25641c-0.07251,0.55507 -0.10876,0.97325 -0.10876,1.25453c0,0.4038 0.02126,1.01513 0.06376,1.83398c0.0425,0.8176 0.06376,1.4283 0.06376,1.83211c0,1.39267 -0.1469,3.46982 -0.44068,6.23142c-0.29254,2.7616 -0.43881,4.83249 -0.43881,6.21267c0,0.70884 0.04876,1.57082 0.14627,2.58595c0.09751,1.01388 0.15252,1.84461 0.16502,2.49219l1.92399,-0.0375c0.51382,0 0.93887,0.16814 1.27516,0.50444c0.33504,0.3363 0.50256,0.75509 0.50256,1.25641c0,0.51257 -0.16752,0.93387 -0.50256,1.26391c-0.3363,0.33004 -0.76135,0.49506 -1.27516,0.49506z"/></g></g></svg>