<svg version="1.1" xmlns="http://www.w3.org/2000/svg" xmlns:xlink="http://www.w3.org/1999/xlink" width="20.432" height="28.11" viewBox="0,0,20.432,28.11"><g transform="translate(-320.01033,-151.90453)"><g fill="#000000" stroke="none" stroke-miterlimit="10"><path d="M339.36977,155.51147l-1.6244,1.893c-1.54827,1.81017 -2.97106,4.001 -4.26839,6.57252l-3.25063,7.12617c-0.22658,0.5238 -0.72662,1.8991 -1.50015,4.12587c-0.61882,1.76144 -1.19622,3.07704 -1.73221,3.9468c-0.33377,0.55913 -0.81007,0.8387 -1.42889,0.8387c-0.47629,0 -0.89595,-0.16628 -1.25896,-0.49883c-0.36301,-0.33377 -0.54451,-0.73272 -0.54451,-1.19683c0,-0.45315 0.38067,-1.61405 1.14201,-3.48269l4.01806,-9.84142c1.77484,-3.8932 3.59659,-6.8935 5.46522,-9.0009l0.33986,-0.37458l-8.96435,-0.17907l-4.01989,-0.10598c-1.1548,-0.10719 -1.73221,-0.67911 -1.73221,-1.71576c0,-0.49944 0.16689,-0.90996 0.50066,-1.23155c0.33377,-0.32159 0.75038,-0.48239 1.24982,-0.48239c1.50076,0 3.75433,0.04751 6.76072,0.14252c3.00639,0.09502 5.25936,0.14252 6.7589,0.14252h3.2689c1.262,0 1.893,0.37519 1.893,1.12557c0,0.56035 -0.35752,1.29246 -1.07258,2.19632z"/></g></g></svg>