<svg version="1.1" xmlns="http://www.w3.org/2000/svg" xmlns:xlink="http://www.w3.org/1999/xlink" width="20.027" height="27.83702" viewBox="0,0,20.027,27.83702"><g transform="translate(-319.99157,-152.21024)"><g fill="#000000" stroke="none" stroke-miterlimit="10"><path d="M336.06956,171.92117v6.49369c0,1.08827 -0.53276,1.6324 -1.59828,1.6324c-1.24031,0 -1.86047,-0.84823 -1.86047,-2.54468c0,-0.21071 0.01197,-0.50882 0.03592,-0.89432c0.02395,-0.3867 0.03592,-0.65009 0.03592,-0.79016l-0.01796,-3.98493l-7.74179,-0.19215c-1.60307,0 -2.71468,-0.05268 -3.33484,-0.15803c-1.06432,-0.17599 -1.59649,-0.59143 -1.59649,-1.2463c0,-0.52678 0.32205,-1.19422 0.96615,-2.00234l1.50849,-1.79043l8.63611,-12.60128c0.78417,-1.08827 1.77846,-1.6324 2.98286,-1.6324c1.32292,0 1.98438,0.57347 1.98438,1.7204v14.58566c0.19873,-0.01197 0.43878,-0.01796 0.72012,-0.01796c2.15259,0 3.22889,0.57945 3.22889,1.73836c0,0.84164 -0.44476,1.3738 -1.3343,1.59649c-0.39748,0.10535 -1.26904,0.13469 -2.61472,0.088zM332.66468,168.44625v-11.37473c-3.12473,4.9852 -5.56465,8.71811 -7.31977,11.19874z"/></g></g></svg>